<svg width="249" height="98" viewBox="0 0 249 98" fill="none" xmlns="http://www.w3.org/2000/svg">
<path d="M59.056 35.328L55.088 35.2L51.376 19.84C46.4267 18.9867 42.7147 18.56 40.24 18.56C35.376 18.56 29.9147 19.5413 23.856 21.504C22.064 24.832 20.656 29.0987 19.632 34.304C18.608 39.5093 18.096 44.416 18.096 49.024C18.096 72.576 24.88 84.352 38.448 84.352C44.2507 84.352 48.8587 83.4987 52.272 81.792L54.96 66.176C60.336 66.176 64.432 66.4747 67.248 67.072C68.6133 76.3733 69.296 83.9253 69.296 89.728C67.248 91.264 63.1093 92.9707 56.88 94.848C50.736 96.7253 44.6773 97.664 38.704 97.664C13.2747 97.664 0.56 81.9627 0.56 50.56C0.56 35.6267 3.632 24.2773 9.776 16.512C16.0053 8.74666 25.904 4.864 39.472 4.864C46.2133 4.864 52.1867 5.84533 57.392 7.808C62 9.51466 65.9253 11.392 69.168 13.44C69.168 19.2427 68.528 26.24 67.248 34.432C64.8587 35.0293 62.128 35.328 59.056 35.328ZM102.809 0.895996C104.43 0.895996 105.454 0.938662 105.881 1.02399C105.881 5.46133 105.326 9.34399 104.217 12.672C104.132 17.9627 104.004 25.4293 103.833 35.072C103.492 56.2347 103.236 72.448 103.065 83.712L113.049 84.864C113.049 88.3627 112.068 92.0747 110.105 96H78.233L77.081 88.96C82.3717 86.9973 86.2117 85.7173 88.601 85.12L86.169 14.08C82.1583 13.6533 78.7877 13.0133 76.057 12.16C76.057 9.00266 76.3557 5.93066 76.953 2.94399C81.9877 1.57866 90.6063 0.895996 102.809 0.895996ZM162.447 34.944L162.575 38.912C162.575 45.568 162.063 49.92 161.039 51.968C158.223 52.992 154.298 53.504 149.263 53.504L145.167 40.576C144.058 40.1493 142.522 39.936 140.559 39.936C138.596 39.936 136.975 40.5333 135.695 41.728C134.5 42.9227 133.903 44.3307 133.903 45.952C133.903 47.5733 134.543 49.0667 135.823 50.432C137.103 51.712 138.426 52.736 139.791 53.504C141.156 54.272 143.119 55.296 145.679 56.576C148.324 57.7707 150.287 58.7093 151.567 59.392C152.932 60.0747 154.639 61.0987 156.687 62.464C158.82 63.8293 160.442 65.1093 161.551 66.304C164.282 69.5467 165.647 73.088 165.647 76.928C165.647 83.4987 163.13 88.576 158.095 92.16C153.146 95.744 147.044 97.536 139.791 97.536C135.951 97.536 131.727 96.8533 127.119 95.488C122.596 94.1227 118.756 92.288 115.599 89.984C115.599 83.84 116.196 78.1227 117.391 72.832C120.804 72.4053 123.578 72.192 125.711 72.192C127.844 72.192 129.295 72.2347 130.063 72.32L131.599 84.736C133.732 85.504 136.292 85.888 139.279 85.888C142.266 85.888 144.612 85.2907 146.319 84.096C148.111 82.9013 149.007 81.2373 149.007 79.104C149.007 76.8853 148.026 75.0507 146.063 73.6C144.1 72.1493 141.412 70.656 137.999 69.12C134.586 67.4987 131.94 66.176 130.063 65.152C128.186 64.0427 126.18 62.6347 124.047 60.928C119.695 57.6 117.519 53.504 117.519 48.64C117.519 42.5813 119.61 37.888 123.791 34.56C128.058 31.1467 133.775 29.44 140.943 29.44C148.111 29.44 155.279 31.2747 162.447 34.944ZM198.562 0.895996L201.634 1.02399C201.634 5.46133 201.079 9.34399 199.97 12.672C199.799 22.4 199.714 29.696 199.714 34.56C202.445 33.3653 205.559 32.2133 209.058 31.104C212.557 29.9947 214.733 29.44 215.586 29.44C224.29 29.44 230.519 31.4027 234.274 35.328C238.114 39.2533 240.034 45.44 240.034 53.888C240.034 54.7413 239.607 64.6827 238.754 83.712L248.738 84.992C248.738 88.6613 247.757 92.3307 245.794 96H213.922L212.77 88.96C218.487 86.656 222.157 85.4187 223.778 85.248C223.607 76.032 223.394 67.8827 223.138 60.8C222.882 53.632 222.199 48.896 221.09 46.592C219.981 44.288 218.189 43.136 215.714 43.136C213.325 43.136 210.551 43.4347 207.394 44.032C204.322 44.544 201.933 45.184 200.226 45.952L198.818 83.712L208.802 84.864C208.802 88.3627 207.821 92.0747 205.858 96H173.986L172.834 88.96C178.125 86.9973 181.965 85.7173 184.354 85.12L181.922 14.08C177.911 13.6533 174.541 13.0133 171.81 12.16C171.81 10.0267 172.109 6.95466 172.706 2.94399C177.741 1.57866 186.359 0.895996 198.562 0.895996Z" fill="#7500AC"/>
</svg>
